<?xml version="1.0" encoding="iso-8859-1"?>
<!-- Uploaded to: SVG Repo, www.svgrepo.com, Generator: SVG Repo Mixer Tools -->
<svg version="1.1" id="Layer_1" xmlns="http://www.w3.org/2000/svg" xmlns:xlink="http://www.w3.org/1999/xlink" 
	 viewBox="0 0 512 512" xml:space="preserve">
<path style="fill:#0096DC;" d="M123.586,459.034v44.138c0,4.875,3.953,8.828,8.828,8.828h247.172c4.875,0,8.828-3.953,8.828-8.828
	v-44.138H123.586z"/>
<path style="fill:#00AAF0;" d="M55.203,406.069l-1.41,29.622c-0.332,6.974,3.477,13.49,9.719,16.62l67.063,30.171l1.838-76.413
	H55.203z"/>
<path style="fill:#0096DC;" d="M130.844,471.32c-14.106-7.637-23.576-22.709-23.576-40.066c0-7.453,1.017-16.991,2.123-25.185
	H91.593c-1.062,8.274-1.981,17.569-1.981,25.185c0,14.582,4.915,27.987,13.08,38.684l27.883,12.544L130.844,471.32z"/>
<path style="fill:#00AAF0;" d="M463.229,211.864c8.495-45.244,4.633-97.657-11.122-115.955
	c-19.03-22.099-81.348-42.944-81.348-42.944H141.241c0,0-62.318,20.845-81.348,42.944c-15.755,18.297-19.617,70.711-11.122,115.955
	c0,0-13.461,52.963-3.295,97.106c0,0-3.378,49.95-2.259,66.562c1.289,19.134,10.205,35.206,27.18,42.258l37.024,15.064
	c0.821,24.145,19.627,43.836,43.965,43.836h209.227c24.338,0,43.144-19.691,43.965-43.836l37.024-15.064
	c16.975-7.052,25.891-23.124,27.18-42.258c1.119-16.612-2.259-66.562-2.259-66.562C476.69,264.828,463.229,211.864,463.229,211.864z
	"/>
<g>
	<path style="fill:#0096DC;" d="M399.838,388.412c1.005-2.947,1.844-5.891,2.573-8.825H264.828v-70.621h135.282
		c-1.578-5.542-2.868-8.824-2.868-8.824s1.289-3.285,2.817-8.831H264.828V220.69h135.471c-0.879-2.934-1.878-5.878-3.058-8.825
		c0,0,0-3.774,0-8.83H264.828v-97.103h-17.655v97.103H114.759c0,5.056,0,8.829,0,8.829c-1.178,2.947-2.177,5.891-3.058,8.826
		h135.471v70.621H111.942c1.527,5.546,2.817,8.831,2.817,8.831s-1.29,3.283-2.868,8.824h135.282v70.621H109.589
		c0.729,2.934,1.567,5.878,2.573,8.825c0,0-0.655,3.57-1.481,8.83h136.491v79.448h17.655v-79.448h136.491
		C400.493,391.981,399.838,388.412,399.838,388.412z"/>
	<path style="fill:#0096DC;" d="M141.241,52.966c0,0,61.793,52.966,114.759,61.793c52.966-8.828,114.759-61.793,114.759-61.793
		L349.155,9.76C346.165,3.778,340.052,0,333.364,0H178.636c-6.687,0-12.801,3.778-15.791,9.76L141.241,52.966z"/>
	<path style="fill:#0096DC;" d="M45.476,308.97c0,0-3.378,49.95-2.259,66.562c1.289,19.134,10.205,35.206,27.18,42.258
		l37.024,15.064c-0.019-0.543-0.154-1.054-0.154-1.601c0-16.358,4.895-42.842,4.895-42.842
		c-15.059-44.135,2.596-88.269,2.596-88.269s-17.655-44.141,0-88.277v-35.313c0,0-7.913-47.188-53.356-82.178
		c-0.489,0.513-1.066,1.022-1.51,1.537c-15.755,18.296-19.617,70.71-11.122,115.954C48.771,211.864,35.31,264.828,45.476,308.97z"/>
</g>
<path style="fill:#007DC8;" d="M114.759,185.379c0-4.875-3.953-8.828-8.828-8.828c-4.875,0-8.828,3.953-8.828,8.828v23.223
	c-1.736,4.735-3.121,9.449-4.225,14.11l-45.468-18.888c0.414,2.698,0.862,5.384,1.361,8.041c0,0-1.014,4.055-2.269,10.708
	l43.456,18.052c-2.515,26.252,2.851,48.775,6.143,59.477c-1.406,4.473-3.218,11.049-4.728,19.095l-47.701-19.816
	c0.499,3.224,1.076,6.432,1.803,9.589c0,0-0.269,4.006-0.627,10.024l44.117,18.326c-1.233,15.519-0.508,33.745,5.057,52.328
	c-1.263,7.508-3.666,23.073-4.268,36.019l17.666,7.188c-0.019-0.543-0.154-1.053-0.154-1.6l0,0c0-6.134,0.689-13.692,1.549-20.744
	c1.433-11.753,3.346-22.099,3.346-22.099c-15.058-44.137,2.598-88.271,2.598-88.271s-17.655-44.141,0-88.277
	C114.759,211.864,114.759,195.838,114.759,185.379z"/>
<path style="fill:#00AAF0;" d="M456.797,406.069l1.41,29.622c0.332,6.974-3.477,13.49-9.719,16.62l-67.063,30.171l-1.838-76.413
	H456.797z"/>
<g>
	<path style="fill:#0096DC;" d="M381.156,471.32c14.106-7.637,23.576-22.709,23.576-40.066c0-7.453-1.017-16.991-2.123-25.185
		h17.798c1.062,8.274,1.981,17.569,1.981,25.185c0,14.582-4.915,27.987-13.08,38.684l-27.883,12.544L381.156,471.32z"/>
	<path style="fill:#0096DC;" d="M466.524,308.97c0,0,3.378,49.95,2.259,66.562c-1.289,19.134-10.205,35.206-27.18,42.258
		l-37.024,15.064c0.019-0.543,0.155-1.054,0.155-1.601c0-16.358-4.895-42.842-4.895-42.842c15.059-44.135-2.596-88.269-2.596-88.269
		s17.655-44.141,0-88.277v-35.313c0,0,7.913-47.188,53.356-82.178c0.489,0.513,1.066,1.022,1.51,1.537
		c15.755,18.296,19.617,70.71,11.122,115.954C463.229,211.864,476.69,264.828,466.524,308.97z"/>
</g>
<g>
	<path style="fill:#007DC8;" d="M397.241,185.379c0-4.875,3.953-8.828,8.828-8.828s8.828,3.953,8.828,8.828v23.223
		c1.736,4.735,3.121,9.449,4.225,14.11l45.468-18.888c-0.414,2.698-0.862,5.384-1.361,8.041c0,0,1.014,4.055,2.269,10.708
		l-43.456,18.052c2.515,26.252-2.851,48.775-6.143,59.477c1.406,4.473,3.218,11.049,4.728,19.095l47.701-19.816
		c-0.499,3.224-1.076,6.432-1.803,9.589c0,0,0.269,4.006,0.627,10.024l-44.117,18.326c1.233,15.519,0.508,33.745-5.057,52.328
		c1.263,7.508,3.666,23.073,4.268,36.019l-17.666,7.188c0.019-0.543,0.154-1.053,0.154-1.6l0,0c0-6.134-0.689-13.692-1.549-20.744
		c-1.433-11.753-3.346-22.099-3.346-22.099c15.058-44.137-2.598-88.271-2.598-88.271s17.655-44.141,0-88.277
		C397.241,211.864,397.241,195.838,397.241,185.379z"/>
	<rect x="247.172" y="476.69" style="fill:#007DC8;" width="17.655" height="35.31"/>
	<path style="fill:#007DC8;" d="M342.253,2.463C339.597,0.91,336.558,0,333.364,0H178.636c-3.194,0-6.233,0.91-8.888,2.463
		c24.745,30.644,52.885,53.429,70.097,65.963c4.591,3.343,7.328,8.636,7.328,14.316v30.123c2.959,0.737,5.91,1.407,8.828,1.894
		c2.918-0.486,5.868-1.155,8.828-1.894V82.742c0-5.681,2.737-10.973,7.328-14.317C289.367,55.892,317.507,33.107,342.253,2.463z"/>
</g>
</svg>