<?xml version="1.0" encoding="iso-8859-1"?>
<!-- Uploaded to: SVG Repo, www.svgrepo.com, Generator: SVG Repo Mixer Tools -->
<svg version="1.1" id="Layer_1" xmlns="http://www.w3.org/2000/svg" xmlns:xlink="http://www.w3.org/1999/xlink" 
	 viewBox="0 0 512 512" xml:space="preserve">
<path style="fill:#E4EAF8;" d="M459.034,399.207l1.41,29.622c0.332,6.975-3.477,13.49-9.719,16.621l-62.273,31.24h-0.039v-77.483
	H459.034z"/>
<polygon style="fill:#D5DCED;" points="388.452,476.69 414.897,463.424 414.897,463.424 414.897,399.207 388.414,399.207 
	388.414,476.69 "/>
<path style="fill:#E4EAF8;" d="M123.586,467.862v35.31c0,4.875,3.953,8.828,8.828,8.828h247.172c4.875,0,8.828-3.953,8.828-8.828
	v-35.31H123.586z"/>
<rect x="123.586" y="467.862" style="fill:#D5DCED;" width="264.828" height="26.483"/>
<path style="fill:#E4EAF8;" d="M52.966,399.207l-1.41,29.622c-0.332,6.975,3.477,13.49,9.719,16.621l62.273,31.24h0.039v-77.483
	H52.966z"/>
<polygon style="fill:#D5DCED;" points="97.103,463.424 97.103,463.424 123.548,476.69 123.586,476.69 123.586,399.207 
	97.103,399.207 "/>
<path style="fill:#FF5A64;" d="M460.158,113.493c-0.684-20.737-13.414-39.166-32.565-47.146L353.103,35.31H158.897L84.408,66.347
	c-19.151,7.98-31.882,26.409-32.565,47.146l-9.247,280.362c-0.249,7.349,4.082,14.082,10.872,16.903l61.29,25.03v32.075
	c0,4.875,3.953,8.828,8.828,8.828h264.828c4.875,0,8.828-3.953,8.828-8.828v-32.075l61.291-25.03
	c6.791-2.822,11.122-9.555,10.872-16.903L460.158,113.493z"/>
<rect x="247.172" y="123.586" style="fill:#D74B55;" width="17.655" height="353.103"/>
<path style="fill:#E4EAF8;" d="M260.679,129.551c15.052-9.553,62.959-42.676,92.425-94.241L326.621,0H185.379l-26.483,35.31
	c29.465,51.565,77.373,84.689,92.425,94.241C254.201,131.38,257.799,131.38,260.679,129.551z"/>
<path style="fill:#D74B55;" d="M53.468,410.758l61.291,25.03v-280.59c0-8.967-3.411-17.597-9.54-24.14L61.661,84.559
	c-5.918,8.318-9.469,18.308-9.818,28.932l-9.247,280.362C42.346,401.203,46.677,407.936,53.468,410.758z"/>
<g>
	<path style="fill:#E4EAF8;" d="M150.069,441.379c-0.922,0-1.863-0.147-2.793-0.457c-4.621-1.535-7.121-6.535-5.578-11.164
		l26.483-79.448c1.535-4.621,6.508-7.121,11.164-5.578c4.621,1.535,7.121,6.535,5.578,11.164l-26.483,79.448
		C157.207,439.043,153.768,441.379,150.069,441.379z"/>
	<path style="fill:#E4EAF8;" d="M361.931,441.379c-3.699,0-7.138-2.336-8.371-6.035l-26.483-79.448
		c-1.543-4.629,0.957-9.63,5.578-11.164c4.664-1.543,9.621,0.957,11.164,5.578l26.483,79.448c1.543,4.629-0.957,9.63-5.578,11.164
		C363.794,441.233,362.854,441.379,361.931,441.379z"/>
</g>
<path style="fill:#D5DCED;" d="M326.621,0H185.379c11.804,29.51,39.392,59.018,56.381,75.337c3.474,3.337,5.412,7.894,5.412,12.711
	v38.797c1.545,1.027,2.978,1.963,4.149,2.707c2.88,1.827,6.476,1.827,9.356,0c1.172-0.744,2.604-1.679,4.149-2.707V88.047
	c0-4.817,1.939-9.375,5.412-12.711C287.229,59.018,314.816,29.51,326.621,0z"/>
<path style="fill:#C8414B;" d="M105.931,167.724c-4.875,0-8.828,3.953-8.828,8.828v252.025l17.655,7.21V176.552
	C114.759,171.677,110.806,167.724,105.931,167.724z"/>
<path style="fill:#D74B55;" d="M458.532,410.758l-61.291,25.03v-280.59c0-8.967,3.411-17.597,9.54-24.14l43.556-46.497
	c5.918,8.318,9.469,18.308,9.819,28.932l9.247,280.362C469.654,401.203,465.323,407.936,458.532,410.758z"/>
<path style="fill:#C8414B;" d="M406.069,167.724c4.875,0,8.828,3.953,8.828,8.828v252.025l-17.655,7.21V176.552
	C397.241,171.677,401.194,167.724,406.069,167.724z"/>
<g>
	<circle style="fill:#E4EAF8;" cx="291.31" cy="158.897" r="8.828"/>
	<circle style="fill:#E4EAF8;" cx="291.31" cy="211.862" r="8.828"/>
	<circle style="fill:#E4EAF8;" cx="291.31" cy="264.828" r="8.828"/>
	<circle style="fill:#E4EAF8;" cx="291.31" cy="317.793" r="8.828"/>
	<circle style="fill:#E4EAF8;" cx="291.31" cy="370.759" r="8.828"/>
	<circle style="fill:#E4EAF8;" cx="291.31" cy="423.724" r="8.828"/>
</g>
</svg>