<?xml version="1.0" encoding="iso-8859-1"?>
<!-- Uploaded to: SVG Repo, www.svgrepo.com, Generator: SVG Repo Mixer Tools -->
<svg height="800px" width="800px" version="1.1" id="Layer_1" xmlns="http://www.w3.org/2000/svg" xmlns:xlink="http://www.w3.org/1999/xlink" 
	 viewBox="0 0 512.004 512.004" xml:space="preserve">
<g transform="translate(0 -1)">
	<path style="fill:#C03A2B;" d="M320.327,30.025l-11.352-11.352l-0.018-0.018l-2.781-5.57C302.468,5.679,294.903,1,286.623,1
		h-61.237c-8.289,0-15.863,4.687-19.562,12.103l-2.772,5.553c0,0-5.438,5.438-11.379,11.388l-15.104,15.095
		C93.44,70.155,97.121,89.276,97.121,89.276l0.468,0.238l-0.494-0.238L0.591,438.866c-2.436,9.278,2.993,18.812,12.226,21.442
		l27.542,7.874c9.631,2.754,19.624-3.054,21.998-12.791l61.246-233.702v256c0,19.5,15.81,35.31,35.31,35.31h194.18
		c19.509,0,35.31-15.81,35.31-35.31V224.638L449.642,455.4c2.375,9.728,12.367,15.537,21.998,12.782l27.542-7.865
		c9.234-2.639,14.663-12.164,12.235-21.451l-96.53-349.59c0,0,3.681-19.121-79.448-44.138l-15.007-15.007L320.327,30.025z"/>
	<g>
		<path style="fill:#962B23;" d="M145.062,55.833C94.498,75.403,97.119,89.28,97.119,89.28l0.477,0.23l-0.494-0.23L0.59,438.862
			c-0.009,0.026-0.009,0.053-0.009,0.071c2.851,6.947,5.879,13.656,9.057,20.118c0.998,0.512,2.057,0.945,3.178,1.262l27.542,7.865
			c9.631,2.754,19.624-3.054,21.998-12.782l61.246-233.701v256c0,19.5,15.81,35.31,35.31,35.31h15.307
			c28.045-46.053,46.468-123.754,46.468-211.862C220.688,185.218,188.794,87.347,145.062,55.833"/>
		<path style="fill:#962B23;" d="M511.415,438.869l-96.521-349.59c0,0,0.009-0.062,0.009-0.124c0-0.018,0.009-0.035,0.009-0.044
			c0-0.106,0-0.256-0.009-0.441v-0.044c-0.044-0.636-0.238-1.695-0.945-3.16c0,0,0,0,0-0.009
			c-2.383-4.917-10.549-14.239-38.047-25.98c-0.062-0.035-0.132-0.062-0.194-0.088c-2.737-1.165-5.659-2.348-8.783-3.558
			c-43.732,31.497-75.626,129.377-75.626,245.31c0,88.108,18.423,165.809,46.46,211.862h15.333c19.5,0,35.31-15.81,35.31-35.31
			v-253.06l61.228,230.771c2.383,9.728,12.367,15.537,22.007,12.782l27.542-7.865C508.413,457.68,513.851,448.155,511.415,438.869"
			/>
	</g>
	<g>
		<path style="fill:#C03A2B;" d="M335.443,265.83c0,4.873-3.955,8.828-8.828,8.828s-8.828-3.955-8.828-8.828
			s3.955-8.828,8.828-8.828S335.443,260.957,335.443,265.83"/>
		<path style="fill:#C03A2B;" d="M335.443,345.279c0,4.873-3.955,8.828-8.828,8.828s-8.828-3.955-8.828-8.828
			c0-4.873,3.955-8.828,8.828-8.828S335.443,340.406,335.443,345.279"/>
	</g>
	<g>
		<path style="fill:#771A18;" d="M449.643,455.399c2.375,9.737,12.367,15.537,21.998,12.791l27.542-7.874
			c9.234-2.631,14.663-12.164,12.235-21.451l-5.553-20.1l-61.299,17.514L449.643,455.399z"/>
		<path style="fill:#771A18;" d="M6.086,418.873l-5.5,19.986c-2.428,9.287,3.001,18.812,12.235,21.451l27.542,7.874
			c9.631,2.745,19.624-3.054,21.998-12.791l5.014-19.006L6.086,418.873z"/>
	</g>
	<g>
		<path style="fill:#962B23;" d="M211.857,71.623c-19.474,0-35.31-15.837-35.31-35.31c0-4.882,3.955-8.828,8.828-8.828
			c4.873,0,8.828,3.946,8.828,8.828c0,9.737,7.918,17.655,17.655,17.655c4.873,0,8.828,3.946,8.828,8.828
			S216.73,71.623,211.857,71.623"/>
		<path style="fill:#962B23;" d="M300.133,71.623c-4.873,0-8.828-3.946-8.828-8.828s3.955-8.828,8.828-8.828
			c9.737,0,17.655-7.918,17.655-17.655c0-4.882,3.955-8.828,8.828-8.828s8.828,3.946,8.828,8.828
			C335.443,55.787,319.606,71.623,300.133,71.623"/>
	</g>
</g>
</svg>