<?xml version="1.0" encoding="iso-8859-1"?>
<!-- Uploaded to: SVG Repo, www.svgrepo.com, Generator: SVG Repo Mixer Tools -->
<svg version="1.1" id="Layer_1" xmlns="http://www.w3.org/2000/svg" xmlns:xlink="http://www.w3.org/1999/xlink" 
	 viewBox="0 0 512 512" xml:space="preserve">
<path style="fill:#FFEA8A;" d="M407.203,149.962C400.85,136.551,387.338,128,372.499,128H358.4v-11.515
	c0-56.463-45.162-103.264-101.623-103.683C199.867,12.38,153.6,58.387,153.6,115.199v12.8V128h-14.099
	c-14.839,0-28.351,8.55-34.703,21.961L0,371.2l76.8,38.4l38.4-76.8v166.4h281.6V332.8l38.4,76.8l76.8-38.4L407.203,149.962z"/>
<g>
	<path style="fill:#FFDB2D;" d="M407.203,149.962C400.85,136.551,387.338,128,372.499,128H358.4v-11.515
		c0-56.463-45.162-103.264-101.623-103.683c-0.261-0.001-0.517,0.014-0.777,0.014V499.2h140.8V332.8l38.4,76.8l76.8-38.4
		L407.203,149.962z"/>
	<rect x="115.2" y="422.4" style="fill:#FFDB2D;" width="281.6" height="76.8"/>
</g>
<g>
	<rect x="256" y="422.4" style="fill:#FFAF33;" width="140.8" height="76.8"/>
	<polygon style="fill:#FFAF33;" points="256,129.553 196.847,70.4 315.153,70.4 	"/>
</g>
<rect x="236.8" y="153.6" style="fill:#FF9408;" width="38.4" height="345.6"/>
<path style="fill:#FFDB2D;" d="M172.791,136.457l-12.445,64.717l37.71,7.251l10.662-55.442L256,174.734l47.283-21.75l10.662,55.442
	l37.71-7.251l-12.445-64.717l19.19-8.828v-11.145c0-10.117-1.472-19.916-4.178-29.202L256,132.466l-98.482-45.302
	c-2.533,8.914-3.918,18.309-3.918,28.035v12.431L172.791,136.457z"/>
<rect x="307.2" y="326.4" style="fill:#FFAF33;" width="51.2" height="38.4"/>
<rect x="153.6" y="326.4" style="fill:#FFDB2D;" width="51.2" height="38.4"/>
<path style="fill:#FFAF33;" d="M358.4,116.485c0-10.117-1.472-19.916-4.178-29.202L256,132.466v42.267l47.283-21.75l10.662,55.442
	l37.71-7.251l-12.445-64.717l19.19-8.827V116.485z"/>
<polygon style="fill:#FF9408;" points="256,70.4 256,129.553 315.153,70.4 "/>
</svg>